<svg width="810" height="180" viewBox="0 0 810 180" fill="none" xmlns="http://www.w3.org/2000/svg">
<path d="M8.82 157C8.22 157 7.71 156.79 7.29 156.37C6.87 155.95 6.66 155.41 6.66 154.75V96.25C6.66 95.59 6.87 95.05 7.29 94.63C7.71 94.21 8.22 94 8.82 94H31.5C37.5 94 42.51 94.96 46.53 96.88C50.55 98.74 53.61 101.5 55.71 105.16C57.87 108.76 59.01 113.23 59.13 118.57C59.25 121.21 59.31 123.52 59.31 125.5C59.31 127.48 59.25 129.76 59.13 132.34C58.95 137.92 57.84 142.54 55.8 146.2C53.76 149.86 50.76 152.59 46.8 154.39C42.9 156.13 37.95 157 31.95 157H8.82ZM20.97 145.3H31.5C34.5 145.3 36.93 144.88 38.79 144.04C40.71 143.14 42.15 141.73 43.11 139.81C44.07 137.83 44.58 135.28 44.64 132.16C44.7 130.42 44.73 128.86 44.73 127.48C44.79 126.1 44.79 124.72 44.73 123.34C44.73 121.96 44.7 120.43 44.64 118.75C44.52 114.25 43.35 110.95 41.13 108.85C38.97 106.75 35.61 105.7 31.05 105.7H20.97V145.3ZM75.2386 157C74.6386 157 74.0986 156.79 73.6186 156.37C73.1986 155.95 72.9886 155.41 72.9886 154.75V112.45C72.9886 111.79 73.1986 111.25 73.6186 110.83C74.0986 110.41 74.6386 110.2 75.2386 110.2H84.3286C84.9286 110.2 85.4386 110.41 85.8586 110.83C86.2786 111.25 86.4886 111.79 86.4886 112.45V154.75C86.4886 155.41 86.2786 155.95 85.8586 156.37C85.4386 156.79 84.9286 157 84.3286 157H75.2386ZM74.9686 103C74.3686 103 73.8586 102.79 73.4386 102.37C73.0186 101.95 72.8086 101.41 72.8086 100.75V93.46C72.8086 92.86 73.0186 92.35 73.4386 91.93C73.8586 91.45 74.3686 91.21 74.9686 91.21H84.5086C85.1086 91.21 85.6186 91.45 86.0386 91.93C86.5186 92.35 86.7586 92.86 86.7586 93.46V100.75C86.7586 101.41 86.5186 101.95 86.0386 102.37C85.6186 102.79 85.1086 103 84.5086 103H74.9686ZM123.424 176.8C118.984 176.8 115.294 176.2 112.354 175C109.414 173.86 107.074 172.45 105.334 170.77C103.654 169.15 102.454 167.53 101.734 165.91C101.014 164.29 100.624 163 100.564 162.04C100.504 161.44 100.714 160.9 101.194 160.42C101.674 160 102.214 159.79 102.814 159.79H112.444C113.044 159.79 113.524 159.91 113.884 160.15C114.244 160.45 114.544 160.96 114.784 161.68C115.144 162.4 115.594 163.15 116.134 163.93C116.674 164.77 117.484 165.46 118.564 166C119.644 166.54 121.114 166.81 122.974 166.81C125.074 166.81 126.814 166.51 128.194 165.91C129.574 165.31 130.594 164.29 131.254 162.85C131.974 161.41 132.334 159.46 132.334 157V150.97C130.894 152.53 129.064 153.82 126.844 154.84C124.684 155.86 122.014 156.37 118.834 156.37C115.714 156.37 112.954 155.89 110.554 154.93C108.214 153.91 106.264 152.5 104.704 150.7C103.144 148.84 101.944 146.62 101.104 144.04C100.264 141.46 99.7837 138.55 99.6637 135.31C99.6037 133.69 99.6037 132.1 99.6637 130.54C99.7837 127.42 100.264 124.57 101.104 121.99C101.944 119.41 103.144 117.19 104.704 115.33C106.264 113.41 108.214 111.94 110.554 110.92C112.954 109.84 115.714 109.3 118.834 109.3C122.134 109.3 124.954 109.93 127.294 111.19C129.634 112.45 131.554 114.01 133.054 115.87V112.45C133.054 111.85 133.264 111.34 133.684 110.92C134.104 110.44 134.614 110.2 135.214 110.2H144.034C144.694 110.2 145.234 110.44 145.654 110.92C146.074 111.34 146.284 111.85 146.284 112.45L146.374 155.74C146.374 160.24 145.504 164.05 143.764 167.17C142.024 170.29 139.444 172.66 136.024 174.28C132.664 175.96 128.464 176.8 123.424 176.8ZM122.974 145.75C125.134 145.75 126.874 145.27 128.194 144.31C129.574 143.35 130.594 142.12 131.254 140.62C131.914 139.06 132.274 137.44 132.334 135.76C132.394 135.1 132.424 134.17 132.424 132.97C132.424 131.71 132.394 130.75 132.334 130.09C132.274 128.41 131.914 126.82 131.254 125.32C130.594 123.82 129.574 122.59 128.194 121.63C126.874 120.61 125.134 120.1 122.974 120.1C120.694 120.1 118.894 120.61 117.574 121.63C116.254 122.59 115.294 123.88 114.694 125.5C114.154 127.12 113.824 128.89 113.704 130.81C113.584 132.25 113.584 133.66 113.704 135.04C113.824 137.02 114.154 138.82 114.694 140.44C115.294 142.06 116.254 143.35 117.574 144.31C118.894 145.27 120.694 145.75 122.974 145.75ZM163.474 157C162.874 157 162.334 156.79 161.854 156.37C161.434 155.95 161.224 155.41 161.224 154.75V112.45C161.224 111.79 161.434 111.25 161.854 110.83C162.334 110.41 162.874 110.2 163.474 110.2H172.564C173.164 110.2 173.674 110.41 174.094 110.83C174.514 111.25 174.724 111.79 174.724 112.45V154.75C174.724 155.41 174.514 155.95 174.094 156.37C173.674 156.79 173.164 157 172.564 157H163.474ZM163.204 103C162.604 103 162.094 102.79 161.674 102.37C161.254 101.95 161.044 101.41 161.044 100.75V93.46C161.044 92.86 161.254 92.35 161.674 91.93C162.094 91.45 162.604 91.21 163.204 91.21H172.744C173.344 91.21 173.854 91.45 174.274 91.93C174.754 92.35 174.994 92.86 174.994 93.46V100.75C174.994 101.41 174.754 101.95 174.274 102.37C173.854 102.79 173.344 103 172.744 103H163.204ZM212.199 157C208.479 157 205.299 156.4 202.659 155.2C200.079 153.94 198.099 152.02 196.719 149.44C195.339 146.86 194.649 143.62 194.649 139.72V120.82H187.629C186.969 120.82 186.429 120.61 186.009 120.19C185.589 119.77 185.379 119.26 185.379 118.66V112.45C185.379 111.79 185.589 111.25 186.009 110.83C186.429 110.41 186.969 110.2 187.629 110.2H194.649V95.35C194.649 94.69 194.859 94.15 195.279 93.73C195.759 93.31 196.299 93.1 196.899 93.1H205.809C206.409 93.1 206.919 93.31 207.339 93.73C207.759 94.15 207.969 94.69 207.969 95.35V110.2H219.219C219.879 110.2 220.419 110.41 220.839 110.83C221.259 111.25 221.469 111.79 221.469 112.45V118.66C221.469 119.26 221.259 119.77 220.839 120.19C220.419 120.61 219.879 120.82 219.219 120.82H207.969V138.64C207.969 140.92 208.389 142.72 209.229 144.04C210.069 145.3 211.479 145.93 213.459 145.93H220.029C220.689 145.93 221.229 146.14 221.649 146.56C222.069 146.98 222.279 147.49 222.279 148.09V154.75C222.279 155.41 222.069 155.95 221.649 156.37C221.229 156.79 220.689 157 220.029 157H212.199ZM247.411 157.9C244.231 157.9 241.381 157.3 238.861 156.1C236.341 154.84 234.331 153.16 232.831 151.06C231.331 148.96 230.581 146.62 230.581 144.04C230.581 139.78 232.291 136.42 235.711 133.96C239.191 131.5 243.751 129.82 249.391 128.92L261.181 127.21V125.59C261.181 123.25 260.641 121.45 259.561 120.19C258.481 118.93 256.591 118.3 253.891 118.3C251.911 118.3 250.321 118.69 249.121 119.47C247.981 120.25 247.081 121.27 246.421 122.53C245.941 123.31 245.221 123.7 244.261 123.7H235.711C235.051 123.7 234.541 123.52 234.181 123.16C233.821 122.74 233.671 122.26 233.731 121.72C233.731 120.7 234.121 119.5 234.901 118.12C235.681 116.74 236.881 115.39 238.501 114.07C240.121 112.69 242.191 111.55 244.711 110.65C247.291 109.75 250.381 109.3 253.981 109.3C257.761 109.3 261.001 109.75 263.701 110.65C266.401 111.55 268.561 112.81 270.181 114.43C271.861 116.05 273.061 117.94 273.781 120.1C274.561 122.2 274.951 124.48 274.951 126.94V154.75C274.951 155.41 274.741 155.95 274.321 156.37C273.901 156.79 273.391 157 272.791 157H263.881C263.281 157 262.771 156.79 262.351 156.37C261.931 155.95 261.721 155.41 261.721 154.75V151.42C260.941 152.56 259.891 153.64 258.571 154.66C257.251 155.62 255.661 156.4 253.801 157C252.001 157.6 249.871 157.9 247.411 157.9ZM251.011 148.54C252.991 148.54 254.761 148.12 256.321 147.28C257.881 146.44 259.111 145.15 260.011 143.41C260.911 141.67 261.361 139.48 261.361 136.84V135.31L252.991 136.66C249.811 137.2 247.471 138.01 245.971 139.09C244.471 140.17 243.721 141.49 243.721 143.05C243.721 144.19 244.051 145.18 244.711 146.02C245.431 146.8 246.331 147.43 247.411 147.91C248.551 148.33 249.751 148.54 251.011 148.54ZM291.698 157C291.038 157 290.498 156.79 290.078 156.37C289.658 155.95 289.448 155.41 289.448 154.75V95.35C289.448 94.69 289.658 94.15 290.078 93.73C290.498 93.31 291.038 93.1 291.698 93.1H300.698C301.358 93.1 301.898 93.31 302.318 93.73C302.738 94.15 302.948 94.69 302.948 95.35V154.75C302.948 155.41 302.738 155.95 302.318 156.37C301.898 156.79 301.358 157 300.698 157H291.698ZM344.624 157C343.964 157 343.424 156.79 343.004 156.37C342.584 155.95 342.374 155.41 342.374 154.75V96.25C342.374 95.59 342.584 95.05 343.004 94.63C343.424 94.21 343.964 94 344.624 94H353.084C353.984 94 354.644 94.24 355.064 94.72C355.544 95.2 355.844 95.56 355.964 95.8L372.614 126.22L389.264 95.8C389.384 95.56 389.654 95.2 390.074 94.72C390.554 94.24 391.244 94 392.144 94H400.514C401.174 94 401.714 94.21 402.134 94.63C402.554 95.05 402.764 95.59 402.764 96.25V154.75C402.764 155.41 402.554 155.95 402.134 156.37C401.714 156.79 401.174 157 400.514 157H391.334C390.734 157 390.224 156.79 389.804 156.37C389.384 155.95 389.174 155.41 389.174 154.75V118.48L377.744 139.81C377.504 140.35 377.144 140.83 376.664 141.25C376.184 141.67 375.524 141.88 374.684 141.88H370.454C369.674 141.88 369.044 141.67 368.564 141.25C368.084 140.83 367.694 140.35 367.394 139.81L356.054 118.48V154.75C356.054 155.41 355.844 155.95 355.424 156.37C355.004 156.79 354.464 157 353.804 157H344.624ZM432.494 157.9C429.314 157.9 426.464 157.3 423.944 156.1C421.424 154.84 419.414 153.16 417.914 151.06C416.414 148.96 415.664 146.62 415.664 144.04C415.664 139.78 417.374 136.42 420.794 133.96C424.274 131.5 428.834 129.82 434.474 128.92L446.264 127.21V125.59C446.264 123.25 445.724 121.45 444.644 120.19C443.564 118.93 441.674 118.3 438.974 118.3C436.994 118.3 435.404 118.69 434.204 119.47C433.064 120.25 432.164 121.27 431.504 122.53C431.024 123.31 430.304 123.7 429.344 123.7H420.794C420.134 123.7 419.624 123.52 419.264 123.16C418.904 122.74 418.754 122.26 418.814 121.72C418.814 120.7 419.204 119.5 419.984 118.12C420.764 116.74 421.964 115.39 423.584 114.07C425.204 112.69 427.274 111.55 429.794 110.65C432.374 109.75 435.464 109.3 439.064 109.3C442.844 109.3 446.084 109.75 448.784 110.65C451.484 111.55 453.644 112.81 455.264 114.43C456.944 116.05 458.144 117.94 458.864 120.1C459.644 122.2 460.034 124.48 460.034 126.94V154.75C460.034 155.41 459.824 155.95 459.404 156.37C458.984 156.79 458.474 157 457.874 157H448.964C448.364 157 447.854 156.79 447.434 156.37C447.014 155.95 446.804 155.41 446.804 154.75V151.42C446.024 152.56 444.974 153.64 443.654 154.66C442.334 155.62 440.744 156.4 438.884 157C437.084 157.6 434.954 157.9 432.494 157.9ZM436.094 148.54C438.074 148.54 439.844 148.12 441.404 147.28C442.964 146.44 444.194 145.15 445.094 143.41C445.994 141.67 446.444 139.48 446.444 136.84V135.31L438.074 136.66C434.894 137.2 432.554 138.01 431.054 139.09C429.554 140.17 428.804 141.49 428.804 143.05C428.804 144.19 429.134 145.18 429.794 146.02C430.514 146.8 431.414 147.43 432.494 147.91C433.634 148.33 434.834 148.54 436.094 148.54ZM476.691 157C476.091 157 475.551 156.79 475.071 156.37C474.651 155.95 474.441 155.41 474.441 154.75V112.45C474.441 111.85 474.651 111.34 475.071 110.92C475.551 110.44 476.091 110.2 476.691 110.2H485.511C486.171 110.2 486.711 110.44 487.131 110.92C487.551 111.34 487.761 111.85 487.761 112.45V116.05C489.261 114.19 491.121 112.75 493.341 111.73C495.561 110.71 498.081 110.2 500.901 110.2H504.771C505.431 110.2 505.971 110.41 506.391 110.83C506.811 111.25 507.021 111.79 507.021 112.45V120.28C507.021 120.88 506.811 121.39 506.391 121.81C505.971 122.23 505.431 122.44 504.771 122.44H496.941C494.241 122.44 492.141 123.19 490.641 124.69C489.201 126.19 488.481 128.26 488.481 130.9V154.75C488.481 155.41 488.241 155.95 487.761 156.37C487.341 156.79 486.831 157 486.231 157H476.691ZM519.581 157C518.921 157 518.381 156.79 517.961 156.37C517.541 155.95 517.331 155.41 517.331 154.75V95.35C517.331 94.69 517.541 94.15 517.961 93.73C518.381 93.31 518.921 93.1 519.581 93.1H528.401C529.001 93.1 529.511 93.31 529.931 93.73C530.411 94.15 530.651 94.69 530.651 95.35V125.77L544.421 111.73C544.901 111.31 545.321 110.95 545.681 110.65C546.101 110.35 546.731 110.2 547.571 110.2H557.831C558.371 110.2 558.821 110.41 559.181 110.83C559.601 111.19 559.811 111.64 559.811 112.18C559.811 112.42 559.751 112.69 559.631 112.99C559.511 113.29 559.301 113.53 559.001 113.71L541.631 131.17L561.251 153.58C561.731 154.06 561.971 154.54 561.971 155.02C561.971 155.56 561.791 156.04 561.431 156.46C561.071 156.82 560.591 157 559.991 157H549.551C548.651 157 547.991 156.85 547.571 156.55C547.211 156.25 546.791 155.89 546.311 155.47L530.651 137.83V154.75C530.651 155.41 530.411 155.95 529.931 156.37C529.511 156.79 529.001 157 528.401 157H519.581ZM590.766 157.9C583.866 157.9 578.376 155.98 574.296 152.14C570.276 148.3 568.146 142.72 567.906 135.4C567.906 134.92 567.906 134.29 567.906 133.51C567.906 132.67 567.906 132.04 567.906 131.62C568.146 126.94 569.196 122.95 571.056 119.65C572.916 116.29 575.526 113.74 578.886 112C582.246 110.2 586.176 109.3 590.676 109.3C595.776 109.3 600.006 110.35 603.366 112.45C606.726 114.49 609.246 117.31 610.926 120.91C612.666 124.45 613.536 128.53 613.536 133.15V135.22C613.536 135.82 613.326 136.36 612.906 136.84C612.486 137.26 611.946 137.47 611.286 137.47H581.946C581.946 137.47 581.946 137.56 581.946 137.74C581.946 137.86 581.946 137.98 581.946 138.1C582.006 140.02 582.366 141.79 583.026 143.41C583.686 144.97 584.646 146.23 585.906 147.19C587.226 148.15 588.816 148.63 590.676 148.63C592.116 148.63 593.316 148.42 594.276 148C595.236 147.52 596.016 147.01 596.616 146.47C597.276 145.87 597.756 145.36 598.056 144.94C598.596 144.28 599.016 143.89 599.316 143.77C599.676 143.59 600.186 143.5 600.846 143.5H610.386C610.926 143.5 611.376 143.68 611.736 144.04C612.156 144.4 612.336 144.85 612.276 145.39C612.216 146.41 611.706 147.64 610.746 149.08C609.846 150.46 608.496 151.84 606.696 153.22C604.896 154.54 602.646 155.65 599.946 156.55C597.306 157.45 594.246 157.9 590.766 157.9ZM581.946 129.19H599.496V128.92C599.496 126.82 599.136 124.99 598.416 123.43C597.756 121.81 596.766 120.55 595.446 119.65C594.126 118.75 592.536 118.3 590.676 118.3C588.816 118.3 587.226 118.75 585.906 119.65C584.646 120.55 583.656 121.81 582.936 123.43C582.276 124.99 581.946 126.82 581.946 128.92V129.19ZM648.544 157C644.824 157 641.644 156.4 639.004 155.2C636.424 153.94 634.444 152.02 633.064 149.44C631.684 146.86 630.994 143.62 630.994 139.72V120.82H623.974C623.314 120.82 622.774 120.61 622.354 120.19C621.934 119.77 621.724 119.26 621.724 118.66V112.45C621.724 111.79 621.934 111.25 622.354 110.83C622.774 110.41 623.314 110.2 623.974 110.2H630.994V95.35C630.994 94.69 631.204 94.15 631.624 93.73C632.104 93.31 632.644 93.1 633.244 93.1H642.154C642.754 93.1 643.264 93.31 643.684 93.73C644.104 94.15 644.314 94.69 644.314 95.35V110.2H655.564C656.224 110.2 656.764 110.41 657.184 110.83C657.604 111.25 657.814 111.79 657.814 112.45V118.66C657.814 119.26 657.604 119.77 657.184 120.19C656.764 120.61 656.224 120.82 655.564 120.82H644.314V138.64C644.314 140.92 644.734 142.72 645.574 144.04C646.414 145.3 647.824 145.93 649.804 145.93H656.374C657.034 145.93 657.574 146.14 657.994 146.56C658.414 146.98 658.624 147.49 658.624 148.09V154.75C658.624 155.41 658.414 155.95 657.994 156.37C657.574 156.79 657.034 157 656.374 157H648.544ZM672.146 157C671.546 157 671.006 156.79 670.526 156.37C670.106 155.95 669.896 155.41 669.896 154.75V112.45C669.896 111.79 670.106 111.25 670.526 110.83C671.006 110.41 671.546 110.2 672.146 110.2H681.236C681.836 110.2 682.346 110.41 682.766 110.83C683.186 111.25 683.396 111.79 683.396 112.45V154.75C683.396 155.41 683.186 155.95 682.766 156.37C682.346 156.79 681.836 157 681.236 157H672.146ZM671.876 103C671.276 103 670.766 102.79 670.346 102.37C669.926 101.95 669.716 101.41 669.716 100.75V93.46C669.716 92.86 669.926 92.35 670.346 91.93C670.766 91.45 671.276 91.21 671.876 91.21H681.416C682.016 91.21 682.526 91.45 682.946 91.93C683.426 92.35 683.666 92.86 683.666 93.46V100.75C683.666 101.41 683.426 101.95 682.946 102.37C682.526 102.79 682.016 103 681.416 103H671.876ZM700.531 157C699.931 157 699.391 156.79 698.911 156.37C698.491 155.95 698.281 155.41 698.281 154.75V112.45C698.281 111.79 698.491 111.25 698.911 110.83C699.391 110.41 699.931 110.2 700.531 110.2H709.351C710.011 110.2 710.551 110.41 710.971 110.83C711.391 111.25 711.601 111.79 711.601 112.45V115.96C713.161 114.04 715.171 112.45 717.631 111.19C720.151 109.93 723.151 109.3 726.631 109.3C730.171 109.3 733.291 110.11 735.991 111.73C738.691 113.29 740.791 115.6 742.291 118.66C743.791 121.66 744.541 125.32 744.541 129.64V154.75C744.541 155.41 744.331 155.95 743.911 156.37C743.491 156.79 742.951 157 742.291 157H732.751C732.091 157 731.551 156.79 731.131 156.37C730.711 155.95 730.501 155.41 730.501 154.75V130.18C730.501 127 729.721 124.54 728.161 122.8C726.661 121 724.441 120.1 721.501 120.1C718.681 120.1 716.431 121 714.751 122.8C713.131 124.54 712.321 127 712.321 130.18V154.75C712.321 155.41 712.111 155.95 711.691 156.37C711.271 156.79 710.731 157 710.071 157H700.531ZM780.884 176.8C776.444 176.8 772.754 176.2 769.814 175C766.874 173.86 764.534 172.45 762.794 170.77C761.114 169.15 759.914 167.53 759.194 165.91C758.474 164.29 758.084 163 758.024 162.04C757.964 161.44 758.174 160.9 758.654 160.42C759.134 160 759.674 159.79 760.274 159.79H769.904C770.504 159.79 770.984 159.91 771.344 160.15C771.704 160.45 772.004 160.96 772.244 161.68C772.604 162.4 773.054 163.15 773.594 163.93C774.134 164.77 774.944 165.46 776.024 166C777.104 166.54 778.574 166.81 780.434 166.81C782.534 166.81 784.274 166.51 785.654 165.91C787.034 165.31 788.054 164.29 788.714 162.85C789.434 161.41 789.794 159.46 789.794 157V150.97C788.354 152.53 786.524 153.82 784.304 154.84C782.144 155.86 779.474 156.37 776.294 156.37C773.174 156.37 770.414 155.89 768.014 154.93C765.674 153.91 763.724 152.5 762.164 150.7C760.604 148.84 759.404 146.62 758.564 144.04C757.724 141.46 757.244 138.55 757.124 135.31C757.064 133.69 757.064 132.1 757.124 130.54C757.244 127.42 757.724 124.57 758.564 121.99C759.404 119.41 760.604 117.19 762.164 115.33C763.724 113.41 765.674 111.94 768.014 110.92C770.414 109.84 773.174 109.3 776.294 109.3C779.594 109.3 782.414 109.93 784.754 111.19C787.094 112.45 789.014 114.01 790.514 115.87V112.45C790.514 111.85 790.724 111.34 791.144 110.92C791.564 110.44 792.074 110.2 792.674 110.2H801.494C802.154 110.2 802.694 110.44 803.114 110.92C803.534 111.34 803.744 111.85 803.744 112.45L803.834 155.74C803.834 160.24 802.964 164.05 801.224 167.17C799.484 170.29 796.904 172.66 793.484 174.28C790.124 175.96 785.924 176.8 780.884 176.8ZM780.434 145.75C782.594 145.75 784.334 145.27 785.654 144.31C787.034 143.35 788.054 142.12 788.714 140.62C789.374 139.06 789.734 137.44 789.794 135.76C789.854 135.1 789.884 134.17 789.884 132.97C789.884 131.71 789.854 130.75 789.794 130.09C789.734 128.41 789.374 126.82 788.714 125.32C788.054 123.82 787.034 122.59 785.654 121.63C784.334 120.61 782.594 120.1 780.434 120.1C778.154 120.1 776.354 120.61 775.034 121.63C773.714 122.59 772.754 123.88 772.154 125.5C771.614 127.12 771.284 128.89 771.164 130.81C771.044 132.25 771.044 133.66 771.164 135.04C771.284 137.02 771.614 138.82 772.154 140.44C772.754 142.06 773.714 143.35 775.034 144.31C776.354 145.27 778.154 145.75 780.434 145.75Z" fill="white"/>
<path opacity="0.8" d="M335.301 34C335.061 34 334.857 33.916 334.689 33.748C334.521 33.58 334.437 33.376 334.437 33.136V13.228H327.777C327.537 13.228 327.333 13.144 327.165 12.976C326.997 12.808 326.913 12.604 326.913 12.364V9.7C326.913 9.436 326.997 9.22 327.165 9.052C327.333 8.884 327.537 8.8 327.777 8.8H346.137C346.401 8.8 346.617 8.884 346.785 9.052C346.953 9.22 347.037 9.436 347.037 9.7V12.364C347.037 12.604 346.953 12.808 346.785 12.976C346.617 13.144 346.401 13.228 346.137 13.228H339.513V33.136C339.513 33.376 339.429 33.58 339.261 33.748C339.093 33.916 338.877 34 338.613 34H335.301ZM351.246 34C351.006 34 350.802 33.916 350.634 33.748C350.466 33.58 350.382 33.376 350.382 33.136V9.304C350.382 9.064 350.466 8.86 350.634 8.692C350.802 8.524 351.006 8.44 351.246 8.44H354.45C354.714 8.44 354.918 8.524 355.062 8.692C355.23 8.86 355.314 9.064 355.314 9.304V17.512C355.962 16.744 356.754 16.12 357.69 15.64C358.626 15.16 359.778 14.92 361.146 14.92C362.61 14.92 363.882 15.256 364.962 15.928C366.066 16.576 366.918 17.5 367.518 18.7C368.118 19.9 368.418 21.34 368.418 23.02V33.136C368.418 33.376 368.334 33.58 368.166 33.748C367.998 33.916 367.794 34 367.554 34H364.314C364.074 34 363.87 33.916 363.702 33.748C363.534 33.58 363.45 33.376 363.45 33.136V23.236C363.45 21.844 363.102 20.752 362.406 19.96C361.734 19.168 360.75 18.772 359.454 18.772C358.206 18.772 357.198 19.168 356.43 19.96C355.686 20.752 355.314 21.844 355.314 23.236V33.136C355.314 33.376 355.23 33.58 355.062 33.748C354.918 33.916 354.714 34 354.45 34H351.246ZM381.77 34.36C379.106 34.36 376.994 33.592 375.434 32.056C373.874 30.52 373.034 28.336 372.914 25.504C372.89 25.264 372.878 24.964 372.878 24.604C372.878 24.22 372.89 23.92 372.914 23.704C373.01 21.88 373.418 20.32 374.138 19.024C374.882 17.704 375.902 16.696 377.198 16C378.494 15.28 380.018 14.92 381.77 14.92C383.714 14.92 385.346 15.328 386.666 16.144C387.986 16.936 388.982 18.052 389.654 19.492C390.326 20.908 390.662 22.552 390.662 24.424V25.18C390.662 25.42 390.578 25.624 390.41 25.792C390.242 25.96 390.026 26.044 389.762 26.044H377.81C377.81 26.044 377.81 26.08 377.81 26.152C377.81 26.224 377.81 26.284 377.81 26.332C377.834 27.172 377.99 27.952 378.278 28.672C378.59 29.368 379.034 29.932 379.61 30.364C380.21 30.796 380.918 31.012 381.734 31.012C382.406 31.012 382.97 30.916 383.426 30.724C383.882 30.508 384.254 30.268 384.542 30.004C384.83 29.74 385.034 29.524 385.154 29.356C385.37 29.068 385.538 28.9 385.658 28.852C385.802 28.78 386.006 28.744 386.27 28.744H389.366C389.606 28.744 389.798 28.816 389.942 28.96C390.11 29.104 390.182 29.284 390.158 29.5C390.134 29.884 389.93 30.352 389.546 30.904C389.186 31.456 388.658 31.996 387.962 32.524C387.266 33.052 386.39 33.496 385.334 33.856C384.302 34.192 383.114 34.36 381.77 34.36ZM377.81 23.02H385.766V22.912C385.766 21.976 385.61 21.16 385.298 20.464C384.986 19.744 384.53 19.192 383.93 18.808C383.33 18.4 382.61 18.196 381.77 18.196C380.93 18.196 380.21 18.4 379.61 18.808C379.01 19.192 378.554 19.744 378.242 20.464C377.954 21.16 377.81 21.976 377.81 22.912V23.02ZM405.446 34C405.206 34 405.002 33.916 404.834 33.748C404.666 33.58 404.582 33.376 404.582 33.136V9.7C404.582 9.436 404.666 9.22 404.834 9.052C405.002 8.884 405.206 8.8 405.446 8.8H415.886C417.83 8.8 419.414 9.1 420.638 9.7C421.862 10.276 422.762 11.08 423.338 12.112C423.938 13.144 424.238 14.344 424.238 15.712C424.238 16.624 424.07 17.428 423.734 18.124C423.422 18.796 423.026 19.348 422.546 19.78C422.09 20.212 421.634 20.548 421.178 20.788C422.114 21.22 422.942 21.94 423.662 22.948C424.382 23.956 424.742 25.156 424.742 26.548C424.742 27.988 424.418 29.272 423.77 30.4C423.122 31.528 422.162 32.416 420.89 33.064C419.618 33.688 418.046 34 416.174 34H405.446ZM409.586 30.184H415.598C416.894 30.184 417.878 29.836 418.55 29.14C419.222 28.42 419.558 27.556 419.558 26.548C419.558 25.492 419.21 24.616 418.514 23.92C417.842 23.224 416.87 22.876 415.598 22.876H409.586V30.184ZM409.586 19.132H415.238C416.51 19.132 417.458 18.832 418.082 18.232C418.73 17.608 419.054 16.804 419.054 15.82C419.054 14.812 418.73 14.02 418.082 13.444C417.458 12.868 416.51 12.58 415.238 12.58H409.586V19.132ZM437.614 34.36C434.95 34.36 432.838 33.592 431.278 32.056C429.718 30.52 428.878 28.336 428.758 25.504C428.734 25.264 428.722 24.964 428.722 24.604C428.722 24.22 428.734 23.92 428.758 23.704C428.854 21.88 429.262 20.32 429.982 19.024C430.726 17.704 431.746 16.696 433.042 16C434.338 15.28 435.862 14.92 437.614 14.92C439.558 14.92 441.19 15.328 442.51 16.144C443.83 16.936 444.826 18.052 445.498 19.492C446.17 20.908 446.506 22.552 446.506 24.424V25.18C446.506 25.42 446.422 25.624 446.254 25.792C446.086 25.96 445.87 26.044 445.606 26.044H433.654C433.654 26.044 433.654 26.08 433.654 26.152C433.654 26.224 433.654 26.284 433.654 26.332C433.678 27.172 433.834 27.952 434.122 28.672C434.434 29.368 434.878 29.932 435.454 30.364C436.054 30.796 436.762 31.012 437.578 31.012C438.25 31.012 438.814 30.916 439.27 30.724C439.726 30.508 440.098 30.268 440.386 30.004C440.674 29.74 440.878 29.524 440.998 29.356C441.214 29.068 441.382 28.9 441.502 28.852C441.646 28.78 441.85 28.744 442.114 28.744H445.21C445.45 28.744 445.642 28.816 445.786 28.96C445.954 29.104 446.026 29.284 446.002 29.5C445.978 29.884 445.774 30.352 445.39 30.904C445.03 31.456 444.502 31.996 443.806 32.524C443.11 33.052 442.234 33.496 441.178 33.856C440.146 34.192 438.958 34.36 437.614 34.36ZM433.654 23.02H441.61V22.912C441.61 21.976 441.454 21.16 441.142 20.464C440.83 19.744 440.374 19.192 439.774 18.808C439.174 18.4 438.454 18.196 437.614 18.196C436.774 18.196 436.054 18.4 435.454 18.808C434.854 19.192 434.398 19.744 434.086 20.464C433.798 21.16 433.654 21.976 433.654 22.912V23.02ZM458.139 34.36C456.699 34.36 455.463 34.192 454.431 33.856C453.423 33.52 452.595 33.1 451.947 32.596C451.299 32.092 450.819 31.588 450.507 31.084C450.195 30.58 450.027 30.16 450.003 29.824C449.979 29.56 450.051 29.356 450.219 29.212C450.411 29.044 450.615 28.96 450.831 28.96H453.675C453.771 28.96 453.855 28.972 453.927 28.996C453.999 29.02 454.095 29.092 454.215 29.212C454.527 29.476 454.851 29.752 455.187 30.04C455.547 30.328 455.967 30.58 456.447 30.796C456.927 30.988 457.527 31.084 458.247 31.084C459.183 31.084 459.963 30.904 460.587 30.544C461.235 30.16 461.559 29.62 461.559 28.924C461.559 28.42 461.415 28.012 461.127 27.7C460.863 27.388 460.359 27.112 459.615 26.872C458.871 26.608 457.815 26.332 456.447 26.044C455.103 25.732 453.987 25.336 453.099 24.856C452.211 24.376 451.551 23.776 451.119 23.056C450.687 22.336 450.471 21.496 450.471 20.536C450.471 19.6 450.747 18.712 451.299 17.872C451.875 17.008 452.715 16.3 453.819 15.748C454.947 15.196 456.339 14.92 457.995 14.92C459.291 14.92 460.419 15.088 461.379 15.424C462.339 15.736 463.131 16.132 463.755 16.612C464.403 17.092 464.895 17.584 465.231 18.088C465.567 18.568 465.747 18.988 465.771 19.348C465.795 19.612 465.723 19.828 465.555 19.996C465.387 20.14 465.195 20.212 464.979 20.212H462.315C462.195 20.212 462.087 20.188 461.991 20.14C461.895 20.092 461.799 20.032 461.703 19.96C461.439 19.72 461.151 19.468 460.839 19.204C460.527 18.916 460.143 18.676 459.687 18.484C459.255 18.292 458.679 18.196 457.959 18.196C457.047 18.196 456.351 18.4 455.871 18.808C455.391 19.192 455.151 19.684 455.151 20.284C455.151 20.692 455.259 21.052 455.475 21.364C455.715 21.652 456.183 21.928 456.879 22.192C457.575 22.456 458.631 22.732 460.047 23.02C461.655 23.308 462.927 23.74 463.863 24.316C464.823 24.868 465.495 25.516 465.879 26.26C466.287 26.98 466.491 27.784 466.491 28.672C466.491 29.752 466.167 30.724 465.519 31.588C464.895 32.452 463.959 33.136 462.711 33.64C461.487 34.12 459.963 34.36 458.139 34.36ZM479.317 34C477.877 34 476.665 33.748 475.681 33.244C474.697 32.74 473.965 31.996 473.485 31.012C473.005 30.004 472.765 28.756 472.765 27.268V19.096H469.921C469.681 19.096 469.477 19.012 469.309 18.844C469.141 18.676 469.057 18.46 469.057 18.196V16.144C469.057 15.904 469.141 15.7 469.309 15.532C469.477 15.364 469.681 15.28 469.921 15.28H472.765V9.304C472.765 9.064 472.837 8.86 472.981 8.692C473.149 8.524 473.365 8.44 473.629 8.44H476.545C476.785 8.44 476.989 8.524 477.157 8.692C477.325 8.86 477.409 9.064 477.409 9.304V15.28H481.909C482.149 15.28 482.353 15.364 482.521 15.532C482.689 15.7 482.773 15.904 482.773 16.144V18.196C482.773 18.46 482.689 18.676 482.521 18.844C482.353 19.012 482.149 19.096 481.909 19.096H477.409V26.908C477.409 27.892 477.577 28.66 477.913 29.212C478.273 29.764 478.885 30.04 479.749 30.04H482.233C482.473 30.04 482.677 30.124 482.845 30.292C483.013 30.46 483.097 30.664 483.097 30.904V33.136C483.097 33.376 483.013 33.58 482.845 33.748C482.677 33.916 482.473 34 482.233 34H479.317Z" fill="white"/>
</svg>
